<?xml version="1.0" encoding="UTF-8" standalone="no"?>
<!DOCTYPE svg PUBLIC "-//W3C//DTD SVG 1.1//EN"
 "http://www.w3.org/Graphics/SVG/1.1/DTD/svg11.dtd">
<!-- Generated by graphviz version 14.1.2 (20260124.0452)
 -->
<!-- Title: G Pages: 1 -->
<svg width="2375pt" height="986pt"
 viewBox="0.00 0.00 2375.00 986.00" xmlns="http://www.w3.org/2000/svg" xmlns:xlink="http://www.w3.org/1999/xlink">
<g id="graph0" class="graph" transform="scale(1 1) rotate(0) translate(21.6 964.35)">
<title>G</title>
<polygon fill="#111111" stroke="none" points="-21.6,21.6 -21.6,-964.35 2353.6,-964.35 2353.6,21.6 -21.6,21.6"/>
<!-- app/(Notes)/Amazon/Amazon.md -->
<g id="node1" class="node">
<title>app/(Notes)/Amazon/Amazon.md</title>
<path fill="none" stroke="#cfffac" d="M1136.46,-839.75C1136.46,-839.75 934.54,-839.75 934.54,-839.75 930.58,-839.75 926.62,-835.79 926.62,-831.83 926.62,-831.83 926.62,-823.92 926.62,-823.92 926.62,-819.96 930.58,-816 934.54,-816 934.54,-816 1136.46,-816 1136.46,-816 1140.42,-816 1144.38,-819.96 1144.38,-823.92 1144.38,-823.92 1144.38,-831.83 1144.38,-831.83 1144.38,-835.79 1140.42,-839.75 1136.46,-839.75"/>
<text xml:space="preserve" text-anchor="middle" x="1035.5" y="-822.45" font-family="Arial" font-size="14.00" fill="#cfffac">app/(Notes)/Amazon/Amazon.md</text>
</g>
<!-- app/(Notes)/Amazon/page.tsx -->
<g id="node2" class="node">
<title>app/(Notes)/Amazon/page.tsx</title>
<path fill="none" stroke="#c6c5fe" d="M699.33,-839.75C699.33,-839.75 519.92,-839.75 519.92,-839.75 515.96,-839.75 512,-835.79 512,-831.83 512,-831.83 512,-823.92 512,-823.92 512,-819.96 515.96,-816 519.92,-816 519.92,-816 699.33,-816 699.33,-816 703.29,-816 707.25,-819.96 707.25,-823.92 707.25,-823.92 707.25,-831.83 707.25,-831.83 707.25,-835.79 703.29,-839.75 699.33,-839.75"/>
<text xml:space="preserve" text-anchor="middle" x="609.62" y="-822.45" font-family="Arial" font-size="14.00" fill="#c6c5fe">app/(Notes)/Amazon/page.tsx</text>
</g>
<!-- app/(Notes)/Amazon/page.tsx&#45;&gt;app/(Notes)/Amazon/Amazon.md -->
<g id="edge1" class="edge">
<title>app/(Notes)/Amazon/page.tsx&#45;&gt;app/(Notes)/Amazon/Amazon.md</title>
<path fill="none" stroke="#757575" d="M707.6,-827.88C769.29,-827.88 849.59,-827.88 915.18,-827.88"/>
<polygon fill="#757575" stroke="#757575" points="914.89,-831.38 924.89,-827.88 914.89,-824.38 914.89,-831.38"/>
</g>
<!-- app/components/note/Note.tsx -->
<g id="node3" class="node">
<title>app/components/note/Note.tsx</title>
<path fill="none" stroke="#c6c5fe" d="M1127.46,-713.75C1127.46,-713.75 943.54,-713.75 943.54,-713.75 939.58,-713.75 935.62,-709.79 935.62,-705.83 935.62,-705.83 935.62,-697.92 935.62,-697.92 935.62,-693.96 939.58,-690 943.54,-690 943.54,-690 1127.46,-690 1127.46,-690 1131.42,-690 1135.38,-693.96 1135.38,-697.92 1135.38,-697.92 1135.38,-705.83 1135.38,-705.83 1135.38,-709.79 1131.42,-713.75 1127.46,-713.75"/>
<text xml:space="preserve" text-anchor="middle" x="1035.5" y="-696.45" font-family="Arial" font-size="14.00" fill="#c6c5fe">app/components/note/Note.tsx</text>
</g>
<!-- app/(Notes)/Amazon/page.tsx&#45;&gt;app/components/note/Note.tsx -->
<g id="edge2" class="edge">
<title>app/(Notes)/Amazon/page.tsx&#45;&gt;app/components/note/Note.tsx</title>
<path fill="none" stroke="#757575" d="M707.67,-837.34C743.3,-836.07 782.07,-828.56 811.5,-806.88 844.2,-782.78 814.89,-747.09 847.5,-722.88 869.4,-706.61 896.9,-698.72 924.03,-695.47"/>
<polygon fill="#757575" stroke="#757575" points="924.09,-698.99 933.7,-694.53 923.41,-692.02 924.09,-698.99"/>
</g>
<!-- app/(Notes)/Graph/notes.ts -->
<g id="node4" class="node">
<title>app/(Notes)/Graph/notes.ts</title>
<path fill="none" stroke="#cfffac" d="M2264.83,-483.75C2264.83,-483.75 2101.17,-483.75 2101.17,-483.75 2097.21,-483.75 2093.25,-479.79 2093.25,-475.83 2093.25,-475.83 2093.25,-467.92 2093.25,-467.92 2093.25,-463.96 2097.21,-460 2101.17,-460 2101.17,-460 2264.83,-460 2264.83,-460 2268.79,-460 2272.75,-463.96 2272.75,-467.92 2272.75,-467.92 2272.75,-475.83 2272.75,-475.83 2272.75,-479.79 2268.79,-483.75 2264.83,-483.75"/>
<text xml:space="preserve" text-anchor="middle" x="2183" y="-466.45" font-family="Arial" font-size="14.00" fill="#cfffac">app/(Notes)/Graph/notes.ts</text>
</g>
<!-- app/components/note/Note.tsx&#45;&gt;app/(Notes)/Graph/notes.ts -->
<g id="edge13" class="edge">
<title>app/components/note/Note.tsx&#45;&gt;app/(Notes)/Graph/notes.ts</title>
<path fill="none" stroke="#757575" d="M1135.57,-691.45C1163.99,-688.27 1195,-684.62 1223.5,-680.88 1407.1,-656.76 1454.24,-656.76 1635.5,-618.88 1820.29,-580.25 2035.55,-516.79 2131.44,-487.54"/>
<polygon fill="#757575" stroke="#757575" points="2132.28,-490.95 2140.82,-484.67 2130.23,-484.25 2132.28,-490.95"/>
</g>
<!-- app/components/note/components/NoteBreadcrumb.tsx -->
<g id="node6" class="node">
<title>app/components/note/components/NoteBreadcrumb.tsx</title>
<path fill="none" stroke="#cfffac" d="M1615.58,-609.75C1615.58,-609.75 1279.42,-609.75 1279.42,-609.75 1275.46,-609.75 1271.5,-605.79 1271.5,-601.83 1271.5,-601.83 1271.5,-593.92 1271.5,-593.92 1271.5,-589.96 1275.46,-586 1279.42,-586 1279.42,-586 1615.58,-586 1615.58,-586 1619.54,-586 1623.5,-589.96 1623.5,-593.92 1623.5,-593.92 1623.5,-601.83 1623.5,-601.83 1623.5,-605.79 1619.54,-609.75 1615.58,-609.75"/>
<text xml:space="preserve" text-anchor="middle" x="1447.5" y="-592.45" font-family="Arial" font-size="14.00" fill="#cfffac">app/components/note/components/NoteBreadcrumb.tsx</text>
</g>
<!-- app/components/note/Note.tsx&#45;&gt;app/components/note/components/NoteBreadcrumb.tsx -->
<g id="edge14" class="edge">
<title>app/components/note/Note.tsx&#45;&gt;app/components/note/components/NoteBreadcrumb.tsx</title>
<path fill="none" stroke="#757575" d="M1135.54,-703.07C1165,-700.22 1196.57,-693.84 1223.5,-680.88 1243.89,-671.06 1239.82,-656.04 1259.5,-644.88 1285.84,-629.94 1316.91,-619.69 1346.08,-612.68"/>
<polygon fill="#757575" stroke="#757575" points="1346.7,-616.13 1355.67,-610.49 1345.14,-609.31 1346.7,-616.13"/>
</g>
<!-- app/(Notes)/Graph/page.tsx -->
<g id="node5" class="node">
<title>app/(Notes)/Graph/page.tsx</title>
<path fill="none" stroke="#c6c5fe" d="M1119.21,-503.75C1119.21,-503.75 951.79,-503.75 951.79,-503.75 947.83,-503.75 943.88,-499.79 943.88,-495.83 943.88,-495.83 943.88,-487.92 943.88,-487.92 943.88,-483.96 947.83,-480 951.79,-480 951.79,-480 1119.21,-480 1119.21,-480 1123.17,-480 1127.12,-483.96 1127.12,-487.92 1127.12,-487.92 1127.12,-495.83 1127.12,-495.83 1127.12,-499.79 1123.17,-503.75 1119.21,-503.75"/>
<text xml:space="preserve" text-anchor="middle" x="1035.5" y="-486.45" font-family="Arial" font-size="14.00" fill="#c6c5fe">app/(Notes)/Graph/page.tsx</text>
</g>
<!-- app/(Notes)/Graph/page.tsx&#45;&gt;app/(Notes)/Graph/notes.ts -->
<g id="edge3" class="edge">
<title>app/(Notes)/Graph/page.tsx&#45;&gt;app/(Notes)/Graph/notes.ts</title>
<path fill="none" stroke="#757575" d="M1127.34,-490.29C1338.64,-486.6 1861.84,-477.46 2081.92,-473.62"/>
<polygon fill="#757575" stroke="#757575" points="2081.67,-477.13 2091.61,-473.45 2081.55,-470.13 2081.67,-477.13"/>
</g>
<!-- app/(Notes)/Graph/page.tsx&#45;&gt;app/components/note/components/NoteBreadcrumb.tsx -->
<g id="edge4" class="edge">
<title>app/(Notes)/Graph/page.tsx&#45;&gt;app/components/note/components/NoteBreadcrumb.tsx</title>
<path fill="none" stroke="#757575" d="M1127.55,-488.7C1159.43,-490.97 1194.48,-497.51 1223.5,-512.88 1245.23,-524.38 1238.46,-542.15 1259.5,-554.88 1280.51,-567.59 1304.92,-576.54 1329.04,-582.85"/>
<polygon fill="#757575" stroke="#757575" points="1328.07,-586.22 1338.62,-585.21 1329.74,-579.42 1328.07,-586.22"/>
</g>
<!-- app/hooks/useTabNavigation.ts -->
<g id="node7" class="node">
<title>app/hooks/useTabNavigation.ts</title>
<path fill="none" stroke="#c6c5fe" d="M1541.33,-225.75C1541.33,-225.75 1353.67,-225.75 1353.67,-225.75 1349.71,-225.75 1345.75,-221.79 1345.75,-217.83 1345.75,-217.83 1345.75,-209.92 1345.75,-209.92 1345.75,-205.96 1349.71,-202 1353.67,-202 1353.67,-202 1541.33,-202 1541.33,-202 1545.29,-202 1549.25,-205.96 1549.25,-209.92 1549.25,-209.92 1549.25,-217.83 1549.25,-217.83 1549.25,-221.79 1545.29,-225.75 1541.33,-225.75"/>
<text xml:space="preserve" text-anchor="middle" x="1447.5" y="-208.45" font-family="Arial" font-size="14.00" fill="#c6c5fe">app/hooks/useTabNavigation.ts</text>
</g>
<!-- app/(Notes)/Graph/page.tsx&#45;&gt;app/hooks/useTabNavigation.ts -->
<g id="edge5" class="edge">
<title>app/(Notes)/Graph/page.tsx&#45;&gt;app/hooks/useTabNavigation.ts</title>
<path fill="none" stroke="#757575" d="M1100.67,-479.52C1138.3,-470.41 1185.71,-455.58 1223.5,-432.88 1314.77,-378.04 1397.13,-278.61 1430.63,-235.16"/>
<polygon fill="#757575" stroke="#757575" points="1433.36,-237.35 1436.63,-227.27 1427.79,-233.11 1433.36,-237.35"/>
</g>
<!-- store/slices/tabSlice.ts -->
<g id="node40" class="node">
<title>store/slices/tabSlice.ts</title>
<path fill="none" stroke="#cfffac" d="M2249.83,-129.75C2249.83,-129.75 2116.17,-129.75 2116.17,-129.75 2112.21,-129.75 2108.25,-125.79 2108.25,-121.83 2108.25,-121.83 2108.25,-113.92 2108.25,-113.92 2108.25,-109.96 2112.21,-106 2116.17,-106 2116.17,-106 2249.83,-106 2249.83,-106 2253.79,-106 2257.75,-109.96 2257.75,-113.92 2257.75,-113.92 2257.75,-121.83 2257.75,-121.83 2257.75,-125.79 2253.79,-129.75 2249.83,-129.75"/>
<text xml:space="preserve" text-anchor="middle" x="2183" y="-112.45" font-family="Arial" font-size="14.00" fill="#cfffac">store/slices/tabSlice.ts</text>
</g>
<!-- app/hooks/useTabNavigation.ts&#45;&gt;store/slices/tabSlice.ts -->
<g id="edge54" class="edge">
<title>app/hooks/useTabNavigation.ts&#45;&gt;store/slices/tabSlice.ts</title>
<path fill="none" stroke="#757575" d="M1549.71,-214.38C1660.67,-213.25 1843.51,-206.39 1998,-176.88 2048.38,-167.25 2104.22,-148.07 2141.03,-134.19"/>
<polygon fill="#757575" stroke="#757575" points="2141.84,-137.63 2149.93,-130.79 2139.34,-131.09 2141.84,-137.63"/>
</g>
<!-- store/index.ts -->
<g id="node41" class="node">
<title>store/index.ts</title>
<path fill="none" stroke="#c6c5fe" d="M1874.96,-167.75C1874.96,-167.75 1794.54,-167.75 1794.54,-167.75 1790.58,-167.75 1786.62,-163.79 1786.62,-159.83 1786.62,-159.83 1786.62,-151.92 1786.62,-151.92 1786.62,-147.96 1790.58,-144 1794.54,-144 1794.54,-144 1874.96,-144 1874.96,-144 1878.92,-144 1882.88,-147.96 1882.88,-151.92 1882.88,-151.92 1882.88,-159.83 1882.88,-159.83 1882.88,-163.79 1878.92,-167.75 1874.96,-167.75"/>
<text xml:space="preserve" text-anchor="middle" x="1834.75" y="-150.45" font-family="Arial" font-size="14.00" fill="#c6c5fe">store/index.ts</text>
</g>
<!-- app/hooks/useTabNavigation.ts&#45;&gt;store/index.ts -->
<g id="edge53" class="edge">
<title>app/hooks/useTabNavigation.ts&#45;&gt;store/index.ts</title>
<path fill="none" stroke="#757575" d="M1540.34,-201.51C1570.66,-197.32 1604.54,-192.52 1635.5,-187.88 1682.41,-180.83 1735.46,-172.23 1774.87,-165.72"/>
<polygon fill="#757575" stroke="#757575" points="1775.34,-169.2 1784.63,-164.11 1774.2,-162.29 1775.34,-169.2"/>
</g>
<!-- app/hooks/getNoteByHref.ts -->
<g id="node43" class="node">
<title>app/hooks/getNoteByHref.ts</title>
<path fill="none" stroke="#c6c5fe" d="M1919.21,-463.75C1919.21,-463.75 1750.29,-463.75 1750.29,-463.75 1746.33,-463.75 1742.38,-459.79 1742.38,-455.83 1742.38,-455.83 1742.38,-447.92 1742.38,-447.92 1742.38,-443.96 1746.33,-440 1750.29,-440 1750.29,-440 1919.21,-440 1919.21,-440 1923.17,-440 1927.12,-443.96 1927.12,-447.92 1927.12,-447.92 1927.12,-455.83 1927.12,-455.83 1927.12,-459.79 1923.17,-463.75 1919.21,-463.75"/>
<text xml:space="preserve" text-anchor="middle" x="1834.75" y="-446.45" font-family="Arial" font-size="14.00" fill="#c6c5fe">app/hooks/getNoteByHref.ts</text>
</g>
<!-- app/hooks/useTabNavigation.ts&#45;&gt;app/hooks/getNoteByHref.ts -->
<g id="edge52" class="edge">
<title>app/hooks/useTabNavigation.ts&#45;&gt;app/hooks/getNoteByHref.ts</title>
<path fill="none" stroke="#757575" d="M1468.4,-226.17C1531.81,-265.34 1729.31,-387.36 1804.39,-433.74"/>
<polygon fill="#757575" stroke="#757575" points="1802.1,-436.44 1812.45,-438.72 1805.78,-430.48 1802.1,-436.44"/>
</g>
<!-- app/(Notes)/Groupie/Groupie.md -->
<g id="node8" class="node">
<title>app/(Notes)/Groupie/Groupie.md</title>
<path fill="none" stroke="#cfffac" d="M1134.96,-797.75C1134.96,-797.75 936.04,-797.75 936.04,-797.75 932.08,-797.75 928.12,-793.79 928.12,-789.83 928.12,-789.83 928.12,-781.92 928.12,-781.92 928.12,-777.96 932.08,-774 936.04,-774 936.04,-774 1134.96,-774 1134.96,-774 1138.92,-774 1142.88,-777.96 1142.88,-781.92 1142.88,-781.92 1142.88,-789.83 1142.88,-789.83 1142.88,-793.79 1138.92,-797.75 1134.96,-797.75"/>
<text xml:space="preserve" text-anchor="middle" x="1035.5" y="-780.45" font-family="Arial" font-size="14.00" fill="#cfffac">app/(Notes)/Groupie/Groupie.md</text>
</g>
<!-- app/(Notes)/Groupie/page.tsx -->
<g id="node9" class="node">
<title>app/(Notes)/Groupie/page.tsx</title>
<path fill="none" stroke="#c6c5fe" d="M698.58,-797.75C698.58,-797.75 520.67,-797.75 520.67,-797.75 516.71,-797.75 512.75,-793.79 512.75,-789.83 512.75,-789.83 512.75,-781.92 512.75,-781.92 512.75,-777.96 516.71,-774 520.67,-774 520.67,-774 698.58,-774 698.58,-774 702.54,-774 706.5,-777.96 706.5,-781.92 706.5,-781.92 706.5,-789.83 706.5,-789.83 706.5,-793.79 702.54,-797.75 698.58,-797.75"/>
<text xml:space="preserve" text-anchor="middle" x="609.62" y="-780.45" font-family="Arial" font-size="14.00" fill="#c6c5fe">app/(Notes)/Groupie/page.tsx</text>
</g>
<!-- app/(Notes)/Groupie/page.tsx&#45;&gt;app/components/note/Note.tsx -->
<g id="edge7" class="edge">
<title>app/(Notes)/Groupie/page.tsx&#45;&gt;app/components/note/Note.tsx</title>
<path fill="none" stroke="#757575" d="M706.93,-786.35C741.39,-783.24 779.58,-775.85 811.5,-759.88 832.02,-749.61 826.9,-732.97 847.5,-722.88 870.99,-711.37 898.08,-705.01 924.21,-701.7"/>
<polygon fill="#757575" stroke="#757575" points="924.29,-705.21 933.84,-700.62 923.51,-698.25 924.29,-705.21"/>
</g>
<!-- app/(Notes)/Groupie/page.tsx&#45;&gt;app/(Notes)/Groupie/Groupie.md -->
<g id="edge6" class="edge">
<title>app/(Notes)/Groupie/page.tsx&#45;&gt;app/(Notes)/Groupie/Groupie.md</title>
<path fill="none" stroke="#757575" d="M706.81,-785.88C769.04,-785.88 850.47,-785.88 916.59,-785.88"/>
<polygon fill="#757575" stroke="#757575" points="916.39,-789.38 926.39,-785.88 916.39,-782.38 916.39,-789.38"/>
</g>
<!-- app/(Notes)/Portfolio/Obsidian Portfolio.md -->
<g id="node10" class="node">
<title>app/(Notes)/Portfolio/Obsidian Portfolio.md</title>
<path fill="none" stroke="#cfffac" d="M1164.58,-755.75C1164.58,-755.75 906.42,-755.75 906.42,-755.75 902.46,-755.75 898.5,-751.79 898.5,-747.83 898.5,-747.83 898.5,-739.92 898.5,-739.92 898.5,-735.96 902.46,-732 906.42,-732 906.42,-732 1164.58,-732 1164.58,-732 1168.54,-732 1172.5,-735.96 1172.5,-739.92 1172.5,-739.92 1172.5,-747.83 1172.5,-747.83 1172.5,-751.79 1168.54,-755.75 1164.58,-755.75"/>
<text xml:space="preserve" text-anchor="middle" x="1035.5" y="-738.45" font-family="Arial" font-size="14.00" fill="#cfffac">app/(Notes)/Portfolio/Obsidian Portfolio.md</text>
</g>
<!-- app/(Notes)/Portfolio/page.tsx -->
<g id="node11" class="node">
<title>app/(Notes)/Portfolio/page.tsx</title>
<path fill="none" stroke="#c6c5fe" d="M698.96,-750.75C698.96,-750.75 520.29,-750.75 520.29,-750.75 516.33,-750.75 512.38,-746.79 512.38,-742.83 512.38,-742.83 512.38,-734.92 512.38,-734.92 512.38,-730.96 516.33,-727 520.29,-727 520.29,-727 698.96,-727 698.96,-727 702.92,-727 706.88,-730.96 706.88,-734.92 706.88,-734.92 706.88,-742.83 706.88,-742.83 706.88,-746.79 702.92,-750.75 698.96,-750.75"/>
<text xml:space="preserve" text-anchor="middle" x="609.62" y="-733.45" font-family="Arial" font-size="14.00" fill="#c6c5fe">app/(Notes)/Portfolio/page.tsx</text>
</g>
<!-- app/(Notes)/Portfolio/page.tsx&#45;&gt;app/components/note/Note.tsx -->
<g id="edge9" class="edge">
<title>app/(Notes)/Portfolio/page.tsx&#45;&gt;app/components/note/Note.tsx</title>
<path fill="none" stroke="#757575" d="M707.34,-730.43C771.78,-724.81 856.65,-717.4 923.79,-711.54"/>
<polygon fill="#757575" stroke="#757575" points="924.09,-715.03 933.75,-710.67 923.48,-708.05 924.09,-715.03"/>
</g>
<!-- app/(Notes)/Portfolio/page.tsx&#45;&gt;app/(Notes)/Portfolio/Obsidian Portfolio.md -->
<g id="edge8" class="edge">
<title>app/(Notes)/Portfolio/page.tsx&#45;&gt;app/(Notes)/Portfolio/Obsidian Portfolio.md</title>
<path fill="none" stroke="#757575" d="M707.34,-740.02C760.36,-740.64 827.22,-741.43 886.65,-742.13"/>
<polygon fill="#757575" stroke="#757575" points="886.48,-745.63 896.52,-742.25 886.57,-738.63 886.48,-745.63"/>
</g>
<!-- app/(Notes)/VideoClipper/Video Clipper.md -->
<g id="node12" class="node">
<title>app/(Notes)/VideoClipper/Video Clipper.md</title>
<path fill="none" stroke="#cfffac" d="M1164.96,-671.75C1164.96,-671.75 906.04,-671.75 906.04,-671.75 902.08,-671.75 898.12,-667.79 898.12,-663.83 898.12,-663.83 898.12,-655.92 898.12,-655.92 898.12,-651.96 902.08,-648 906.04,-648 906.04,-648 1164.96,-648 1164.96,-648 1168.92,-648 1172.88,-651.96 1172.88,-655.92 1172.88,-655.92 1172.88,-663.83 1172.88,-663.83 1172.88,-667.79 1168.92,-671.75 1164.96,-671.75"/>
<text xml:space="preserve" text-anchor="middle" x="1035.5" y="-654.45" font-family="Arial" font-size="14.00" fill="#cfffac">app/(Notes)/VideoClipper/Video Clipper.md</text>
</g>
<!-- app/(Notes)/VideoClipper/page.tsx -->
<g id="node13" class="node">
<title>app/(Notes)/VideoClipper/page.tsx</title>
<path fill="none" stroke="#c6c5fe" d="M712.83,-687.75C712.83,-687.75 506.42,-687.75 506.42,-687.75 502.46,-687.75 498.5,-683.79 498.5,-679.83 498.5,-679.83 498.5,-671.92 498.5,-671.92 498.5,-667.96 502.46,-664 506.42,-664 506.42,-664 712.83,-664 712.83,-664 716.79,-664 720.75,-667.96 720.75,-671.92 720.75,-671.92 720.75,-679.83 720.75,-679.83 720.75,-683.79 716.79,-687.75 712.83,-687.75"/>
<text xml:space="preserve" text-anchor="middle" x="609.62" y="-670.45" font-family="Arial" font-size="14.00" fill="#c6c5fe">app/(Notes)/VideoClipper/page.tsx</text>
</g>
<!-- app/(Notes)/VideoClipper/page.tsx&#45;&gt;app/components/note/Note.tsx -->
<g id="edge11" class="edge">
<title>app/(Notes)/VideoClipper/page.tsx&#45;&gt;app/components/note/Note.tsx</title>
<path fill="none" stroke="#757575" d="M721.16,-682.66C783.63,-686.49 861.47,-691.26 923.94,-695.09"/>
<polygon fill="#757575" stroke="#757575" points="923.71,-698.59 933.9,-695.7 924.14,-691.6 923.71,-698.59"/>
</g>
<!-- app/(Notes)/VideoClipper/page.tsx&#45;&gt;app/(Notes)/VideoClipper/Video Clipper.md -->
<g id="edge10" class="edge">
<title>app/(Notes)/VideoClipper/page.tsx&#45;&gt;app/(Notes)/VideoClipper/Video Clipper.md</title>
<path fill="none" stroke="#757575" d="M721.16,-671.7C771.54,-669.8 831.93,-667.52 886.18,-665.47"/>
<polygon fill="#757575" stroke="#757575" points="886.29,-668.97 896.15,-665.1 886.02,-661.98 886.29,-668.97"/>
</g>
<!-- app/components/ExternalLink.tsx -->
<g id="node14" class="node">
<title>app/components/ExternalLink.tsx</title>
<path fill="none" stroke="#cfffac" d="M709.46,-179.75C709.46,-179.75 509.79,-179.75 509.79,-179.75 505.83,-179.75 501.88,-175.79 501.88,-171.83 501.88,-171.83 501.88,-163.92 501.88,-163.92 501.88,-159.96 505.83,-156 509.79,-156 509.79,-156 709.46,-156 709.46,-156 713.42,-156 717.38,-159.96 717.38,-163.92 717.38,-163.92 717.38,-171.83 717.38,-171.83 717.38,-175.79 713.42,-179.75 709.46,-179.75"/>
<text xml:space="preserve" text-anchor="middle" x="609.62" y="-162.45" font-family="Arial" font-size="14.00" fill="#cfffac">app/components/ExternalLink.tsx</text>
</g>
<!-- app/components/HoverButton.tsx -->
<g id="node15" class="node">
<title>app/components/HoverButton.tsx</title>
<path fill="none" stroke="#cfffac" d="M1135.71,-381.75C1135.71,-381.75 935.29,-381.75 935.29,-381.75 931.33,-381.75 927.38,-377.79 927.38,-373.83 927.38,-373.83 927.38,-365.92 927.38,-365.92 927.38,-361.96 931.33,-358 935.29,-358 935.29,-358 1135.71,-358 1135.71,-358 1139.67,-358 1143.62,-361.96 1143.62,-365.92 1143.62,-365.92 1143.62,-373.83 1143.62,-373.83 1143.62,-377.79 1139.67,-381.75 1135.71,-381.75"/>
<text xml:space="preserve" text-anchor="middle" x="1035.5" y="-364.45" font-family="Arial" font-size="14.00" fill="#cfffac">app/components/HoverButton.tsx</text>
</g>
<!-- app/components/LineNumbers.tsx -->
<g id="node16" class="node">
<title>app/components/LineNumbers.tsx</title>
<path fill="none" stroke="#cfffac" d="M712.83,-259.75C712.83,-259.75 506.42,-259.75 506.42,-259.75 502.46,-259.75 498.5,-255.79 498.5,-251.83 498.5,-251.83 498.5,-243.92 498.5,-243.92 498.5,-239.96 502.46,-236 506.42,-236 506.42,-236 712.83,-236 712.83,-236 716.79,-236 720.75,-239.96 720.75,-243.92 720.75,-243.92 720.75,-251.83 720.75,-251.83 720.75,-255.79 716.79,-259.75 712.83,-259.75"/>
<text xml:space="preserve" text-anchor="middle" x="609.62" y="-242.45" font-family="Arial" font-size="14.00" fill="#cfffac">app/components/LineNumbers.tsx</text>
</g>
<!-- app/components/LocalLink.tsx -->
<g id="node17" class="node">
<title>app/components/LocalLink.tsx</title>
<path fill="none" stroke="#c6c5fe" d="M1126.71,-225.75C1126.71,-225.75 944.29,-225.75 944.29,-225.75 940.33,-225.75 936.38,-221.79 936.38,-217.83 936.38,-217.83 936.38,-209.92 936.38,-209.92 936.38,-205.96 940.33,-202 944.29,-202 944.29,-202 1126.71,-202 1126.71,-202 1130.67,-202 1134.62,-205.96 1134.62,-209.92 1134.62,-209.92 1134.62,-217.83 1134.62,-217.83 1134.62,-221.79 1130.67,-225.75 1126.71,-225.75"/>
<text xml:space="preserve" text-anchor="middle" x="1035.5" y="-208.45" font-family="Arial" font-size="14.00" fill="#c6c5fe">app/components/LocalLink.tsx</text>
</g>
<!-- app/components/LocalLink.tsx&#45;&gt;app/hooks/useTabNavigation.ts -->
<g id="edge12" class="edge">
<title>app/components/LocalLink.tsx&#45;&gt;app/hooks/useTabNavigation.ts</title>
<path fill="none" stroke="#757575" d="M1134.97,-213.88C1194.85,-213.88 1271.54,-213.88 1333.84,-213.88"/>
<polygon fill="#757575" stroke="#757575" points="1333.78,-217.38 1343.78,-213.88 1333.78,-210.38 1333.78,-217.38"/>
</g>
<!-- app/components/notelist/NotesList.tsx -->
<g id="node18" class="node">
<title>app/components/notelist/NotesList.tsx</title>
<path fill="none" stroke="#c6c5fe" d="M723.71,-503.75C723.71,-503.75 495.54,-503.75 495.54,-503.75 491.58,-503.75 487.62,-499.79 487.62,-495.83 487.62,-495.83 487.62,-487.92 487.62,-487.92 487.62,-483.96 491.58,-480 495.54,-480 495.54,-480 723.71,-480 723.71,-480 727.67,-480 731.62,-483.96 731.62,-487.92 731.62,-487.92 731.62,-495.83 731.62,-495.83 731.62,-499.79 727.67,-503.75 723.71,-503.75"/>
<text xml:space="preserve" text-anchor="middle" x="609.62" y="-486.45" font-family="Arial" font-size="14.00" fill="#c6c5fe">app/components/notelist/NotesList.tsx</text>
</g>
<!-- app/components/notelist/components/FolderButton.tsx -->
<g id="node19" class="node">
<title>app/components/notelist/components/FolderButton.tsx</title>
<path fill="none" stroke="#c6c5fe" d="M1199.08,-545.75C1199.08,-545.75 871.92,-545.75 871.92,-545.75 867.96,-545.75 864,-541.79 864,-537.83 864,-537.83 864,-529.92 864,-529.92 864,-525.96 867.96,-522 871.92,-522 871.92,-522 1199.08,-522 1199.08,-522 1203.04,-522 1207,-525.96 1207,-529.92 1207,-529.92 1207,-537.83 1207,-537.83 1207,-541.79 1203.04,-545.75 1199.08,-545.75"/>
<text xml:space="preserve" text-anchor="middle" x="1035.5" y="-528.45" font-family="Arial" font-size="14.00" fill="#c6c5fe">app/components/notelist/components/FolderButton.tsx</text>
</g>
<!-- app/components/notelist/NotesList.tsx&#45;&gt;app/components/notelist/components/FolderButton.tsx -->
<g id="edge15" class="edge">
<title>app/components/notelist/NotesList.tsx&#45;&gt;app/components/notelist/components/FolderButton.tsx</title>
<path fill="none" stroke="#757575" d="M732.09,-503.91C784.05,-509.06 844.94,-515.09 898.41,-520.39"/>
<polygon fill="#757575" stroke="#757575" points="897.9,-523.86 908.2,-521.36 898.59,-516.89 897.9,-523.86"/>
</g>
<!-- app/components/notelist/components/NoteButton.tsx -->
<g id="node20" class="node">
<title>app/components/notelist/components/NoteButton.tsx</title>
<path fill="none" stroke="#c6c5fe" d="M1194.21,-423.75C1194.21,-423.75 876.79,-423.75 876.79,-423.75 872.83,-423.75 868.88,-419.79 868.88,-415.83 868.88,-415.83 868.88,-407.92 868.88,-407.92 868.88,-403.96 872.83,-400 876.79,-400 876.79,-400 1194.21,-400 1194.21,-400 1198.17,-400 1202.12,-403.96 1202.12,-407.92 1202.12,-407.92 1202.12,-415.83 1202.12,-415.83 1202.12,-419.79 1198.17,-423.75 1194.21,-423.75"/>
<text xml:space="preserve" text-anchor="middle" x="1035.5" y="-406.45" font-family="Arial" font-size="14.00" fill="#c6c5fe">app/components/notelist/components/NoteButton.tsx</text>
</g>
<!-- app/components/notelist/NotesList.tsx&#45;&gt;app/components/notelist/components/NoteButton.tsx -->
<g id="edge16" class="edge">
<title>app/components/notelist/NotesList.tsx&#45;&gt;app/components/notelist/components/NoteButton.tsx</title>
<path fill="none" stroke="#757575" d="M675.93,-479.55C752,-465.19 877.52,-441.5 958.07,-426.3"/>
<polygon fill="#757575" stroke="#757575" points="958.46,-429.79 967.64,-424.49 957.16,-422.91 958.46,-429.79"/>
</g>
<!-- app/components/notelist/noteslist.module.css -->
<g id="node21" class="node">
<title>app/components/notelist/noteslist.module.css</title>
<path fill="none" stroke="#cfffac" d="M1584.08,-545.75C1584.08,-545.75 1310.92,-545.75 1310.92,-545.75 1306.96,-545.75 1303,-541.79 1303,-537.83 1303,-537.83 1303,-529.92 1303,-529.92 1303,-525.96 1306.96,-522 1310.92,-522 1310.92,-522 1584.08,-522 1584.08,-522 1588.04,-522 1592,-525.96 1592,-529.92 1592,-529.92 1592,-537.83 1592,-537.83 1592,-541.79 1588.04,-545.75 1584.08,-545.75"/>
<text xml:space="preserve" text-anchor="middle" x="1447.5" y="-528.45" font-family="Arial" font-size="14.00" fill="#cfffac">app/components/notelist/noteslist.module.css</text>
</g>
<!-- app/components/notelist/components/FolderButton.tsx&#45;&gt;app/components/notelist/noteslist.module.css -->
<g id="edge17" class="edge">
<title>app/components/notelist/components/FolderButton.tsx&#45;&gt;app/components/notelist/noteslist.module.css</title>
<path fill="none" stroke="#757575" d="M1207.41,-533.88C1235.22,-533.88 1263.89,-533.88 1291.29,-533.88"/>
<polygon fill="#757575" stroke="#757575" points="1291.03,-537.38 1301.03,-533.88 1291.03,-530.38 1291.03,-537.38"/>
</g>
<!-- app/hooks/useOpenable.ts -->
<g id="node22" class="node">
<title>app/hooks/useOpenable.ts</title>
<path fill="none" stroke="#cfffac" d="M1528.21,-775.75C1528.21,-775.75 1366.79,-775.75 1366.79,-775.75 1362.83,-775.75 1358.88,-771.79 1358.88,-767.83 1358.88,-767.83 1358.88,-759.92 1358.88,-759.92 1358.88,-755.96 1362.83,-752 1366.79,-752 1366.79,-752 1528.21,-752 1528.21,-752 1532.17,-752 1536.12,-755.96 1536.12,-759.92 1536.12,-759.92 1536.12,-767.83 1536.12,-767.83 1536.12,-771.79 1532.17,-775.75 1528.21,-775.75"/>
<text xml:space="preserve" text-anchor="middle" x="1447.5" y="-758.45" font-family="Arial" font-size="14.00" fill="#cfffac">app/hooks/useOpenable.ts</text>
</g>
<!-- app/components/notelist/components/FolderButton.tsx&#45;&gt;app/hooks/useOpenable.ts -->
<g id="edge18" class="edge">
<title>app/components/notelist/components/FolderButton.tsx&#45;&gt;app/hooks/useOpenable.ts</title>
<path fill="none" stroke="#757575" d="M1207.26,-545.73C1212.89,-548.41 1218.33,-551.45 1223.5,-554.88 1250.71,-572.9 1238.18,-594.16 1259.5,-618.88 1306.28,-673.1 1376.06,-720.71 1415.83,-745.57"/>
<polygon fill="#757575" stroke="#757575" points="1413.86,-748.47 1424.21,-750.74 1417.53,-742.51 1413.86,-748.47"/>
</g>
<!-- app/components/notelist/components/NoteButton.tsx&#45;&gt;app/hooks/useTabNavigation.ts -->
<g id="edge19" class="edge">
<title>app/components/notelist/components/NoteButton.tsx&#45;&gt;app/hooks/useTabNavigation.ts</title>
<path fill="none" stroke="#757575" d="M1198.12,-399.6C1206.83,-397.13 1215.35,-394.24 1223.5,-390.88 1311.48,-354.57 1393.28,-272.73 1428.41,-234.41"/>
<polygon fill="#757575" stroke="#757575" points="1430.82,-236.96 1434.93,-227.2 1425.63,-232.27 1430.82,-236.96"/>
</g>
<!-- app/components/notelist/components/NoteListTopBar.tsx -->
<g id="node23" class="node">
<title>app/components/notelist/components/NoteListTopBar.tsx</title>
<path fill="none" stroke="#c6c5fe" d="M780.33,-385.75C780.33,-385.75 438.92,-385.75 438.92,-385.75 434.96,-385.75 431,-381.79 431,-377.83 431,-377.83 431,-369.92 431,-369.92 431,-365.96 434.96,-362 438.92,-362 438.92,-362 780.33,-362 780.33,-362 784.29,-362 788.25,-365.96 788.25,-369.92 788.25,-369.92 788.25,-377.83 788.25,-377.83 788.25,-381.79 784.29,-385.75 780.33,-385.75"/>
<text xml:space="preserve" text-anchor="middle" x="609.62" y="-368.45" font-family="Arial" font-size="14.00" fill="#c6c5fe">app/components/notelist/components/NoteListTopBar.tsx</text>
</g>
<!-- app/components/notelist/components/NoteListTopBar.tsx&#45;&gt;app/hooks/useTabNavigation.ts -->
<g id="edge21" class="edge">
<title>app/components/notelist/components/NoteListTopBar.tsx&#45;&gt;app/hooks/useTabNavigation.ts</title>
<path fill="none" stroke="#757575" d="M736.9,-361.51C761.65,-358.85 787.41,-355.92 811.5,-352.88 995.15,-329.69 1043.77,-336.19 1223.5,-291.88 1289.03,-275.72 1362.46,-248.1 1406.55,-230.44"/>
<polygon fill="#757575" stroke="#757575" points="1407.74,-233.73 1415.7,-226.74 1405.12,-227.24 1407.74,-233.73"/>
</g>
<!-- app/components/notelist/components/NoteListTopBar.tsx&#45;&gt;app/components/HoverButton.tsx -->
<g id="edge20" class="edge">
<title>app/components/notelist/components/NoteListTopBar.tsx&#45;&gt;app/components/HoverButton.tsx</title>
<path fill="none" stroke="#757575" d="M788.54,-372.2C831.33,-371.79 876.02,-371.37 915.38,-371"/>
<polygon fill="#757575" stroke="#757575" points="915.4,-374.5 925.36,-370.9 915.33,-367.5 915.4,-374.5"/>
</g>
<!-- app/components/parseDoubleBrackets.tsx -->
<g id="node24" class="node">
<title>app/components/parseDoubleBrackets.tsx</title>
<path fill="none" stroke="#c6c5fe" d="M736.83,-301.75C736.83,-301.75 482.42,-301.75 482.42,-301.75 478.46,-301.75 474.5,-297.79 474.5,-293.83 474.5,-293.83 474.5,-285.92 474.5,-285.92 474.5,-281.96 478.46,-278 482.42,-278 482.42,-278 736.83,-278 736.83,-278 740.79,-278 744.75,-281.96 744.75,-285.92 744.75,-285.92 744.75,-293.83 744.75,-293.83 744.75,-297.79 740.79,-301.75 736.83,-301.75"/>
<text xml:space="preserve" text-anchor="middle" x="609.62" y="-284.45" font-family="Arial" font-size="14.00" fill="#c6c5fe">app/components/parseDoubleBrackets.tsx</text>
</g>
<!-- app/components/parseDoubleBrackets.tsx&#45;&gt;app/(Notes)/Graph/notes.ts -->
<g id="edge22" class="edge">
<title>app/components/parseDoubleBrackets.tsx&#45;&gt;app/(Notes)/Graph/notes.ts</title>
<path fill="none" stroke="#757575" d="M744.78,-298.04C993.26,-314.37 1541.36,-356.08 1998,-430.88 2040.15,-437.78 2087.14,-448.3 2123.08,-456.95"/>
<polygon fill="#757575" stroke="#757575" points="2121.85,-460.26 2132.4,-459.22 2123.5,-453.45 2121.85,-460.26"/>
</g>
<!-- app/components/parseDoubleBrackets.tsx&#45;&gt;app/components/LocalLink.tsx -->
<g id="edge23" class="edge">
<title>app/components/parseDoubleBrackets.tsx&#45;&gt;app/components/LocalLink.tsx</title>
<path fill="none" stroke="#757575" d="M745.1,-286.59C767.83,-283.02 790.75,-277.43 811.5,-268.88 830.49,-261.04 828.64,-248.03 847.5,-239.88 871.59,-229.46 898.9,-223.02 925.06,-219.08"/>
<polygon fill="#757575" stroke="#757575" points="925.26,-222.58 934.69,-217.75 924.31,-215.65 925.26,-222.58"/>
</g>
<!-- app/components/sidebar/SideBar.tsx -->
<g id="node25" class="node">
<title>app/components/sidebar/SideBar.tsx</title>
<path fill="none" stroke="#c6c5fe" d="M363.83,-464.75C363.83,-464.75 143.17,-464.75 143.17,-464.75 139.21,-464.75 135.25,-460.79 135.25,-456.83 135.25,-456.83 135.25,-448.92 135.25,-448.92 135.25,-444.96 139.21,-441 143.17,-441 143.17,-441 363.83,-441 363.83,-441 367.79,-441 371.75,-444.96 371.75,-448.92 371.75,-448.92 371.75,-456.83 371.75,-456.83 371.75,-460.79 367.79,-464.75 363.83,-464.75"/>
<text xml:space="preserve" text-anchor="middle" x="253.5" y="-447.45" font-family="Arial" font-size="14.00" fill="#c6c5fe">app/components/sidebar/SideBar.tsx</text>
</g>
<!-- app/components/sidebar/SideBar.tsx&#45;&gt;app/components/HoverButton.tsx -->
<g id="edge24" class="edge">
<title>app/components/sidebar/SideBar.tsx&#45;&gt;app/components/HoverButton.tsx</title>
<path fill="none" stroke="#757575" d="M372.16,-440.9C484.91,-429.35 659.86,-411.27 811.5,-394.88 822.59,-393.68 868.42,-388.54 915.67,-383.24"/>
<polygon fill="#757575" stroke="#757575" points="915.99,-386.72 925.54,-382.13 915.21,-379.77 915.99,-386.72"/>
</g>
<!-- app/components/sidebar/SideBar.tsx&#45;&gt;app/components/notelist/NotesList.tsx -->
<g id="edge25" class="edge">
<title>app/components/sidebar/SideBar.tsx&#45;&gt;app/components/notelist/NotesList.tsx</title>
<path fill="none" stroke="#757575" d="M366.55,-465.21C404.26,-469.37 446.55,-474.03 485.1,-478.27"/>
<polygon fill="#757575" stroke="#757575" points="484.57,-481.73 494.89,-479.35 485.33,-474.78 484.57,-481.73"/>
</g>
<!-- app/components/sidebar/SideBar.tsx&#45;&gt;app/hooks/useOpenable.ts -->
<g id="edge30" class="edge">
<title>app/components/sidebar/SideBar.tsx&#45;&gt;app/hooks/useOpenable.ts</title>
<path fill="none" stroke="#757575" d="M254.69,-465.14C256.3,-521.31 271.23,-755.32 407.75,-848.88 482.52,-900.11 1134.36,-865.29 1223.5,-848.88 1293.56,-835.98 1370.1,-802.06 1412.81,-781.18"/>
<polygon fill="#757575" stroke="#757575" points="1414.16,-784.42 1421.56,-776.85 1411.05,-778.15 1414.16,-784.42"/>
</g>
<!-- app/components/sidebar/SideBar.tsx&#45;&gt;app/components/notelist/components/NoteListTopBar.tsx -->
<g id="edge26" class="edge">
<title>app/components/sidebar/SideBar.tsx&#45;&gt;app/components/notelist/components/NoteListTopBar.tsx</title>
<path fill="none" stroke="#757575" d="M284.21,-440.57C314.69,-428.42 363.76,-410.21 407.75,-399.88 428.08,-395.1 449.79,-391.14 471.15,-387.87"/>
<polygon fill="#757575" stroke="#757575" points="471.4,-391.37 480.78,-386.45 470.37,-384.45 471.4,-391.37"/>
</g>
<!-- app/components/sidebar/components/Calendar.tsx -->
<g id="node26" class="node">
<title>app/components/sidebar/components/Calendar.tsx</title>
<path fill="none" stroke="#c6c5fe" d="M762.33,-919.75C762.33,-919.75 456.92,-919.75 456.92,-919.75 452.96,-919.75 449,-915.79 449,-911.83 449,-911.83 449,-903.92 449,-903.92 449,-899.96 452.96,-896 456.92,-896 456.92,-896 762.33,-896 762.33,-896 766.29,-896 770.25,-899.96 770.25,-903.92 770.25,-903.92 770.25,-911.83 770.25,-911.83 770.25,-915.79 766.29,-919.75 762.33,-919.75"/>
<text xml:space="preserve" text-anchor="middle" x="609.62" y="-902.45" font-family="Arial" font-size="14.00" fill="#c6c5fe">app/components/sidebar/components/Calendar.tsx</text>
</g>
<!-- app/components/sidebar/SideBar.tsx&#45;&gt;app/components/sidebar/components/Calendar.tsx -->
<g id="edge27" class="edge">
<title>app/components/sidebar/SideBar.tsx&#45;&gt;app/components/sidebar/components/Calendar.tsx</title>
<path fill="none" stroke="#757575" d="M254.59,-464.93C255.75,-522.35 268.87,-769.98 407.75,-881.88 416.93,-889.27 427.16,-895.18 437.99,-899.86"/>
<polygon fill="#757575" stroke="#757575" points="436.55,-903.05 447.14,-903.43 439.09,-896.53 436.55,-903.05"/>
</g>
<!-- app/components/sidebar/components/SideBarTopButtonsList.tsx -->
<g id="node27" class="node">
<title>app/components/sidebar/components/SideBarTopButtonsList.tsx</title>
<path fill="none" stroke="#c6c5fe" d="M803.58,-566.75C803.58,-566.75 415.67,-566.75 415.67,-566.75 411.71,-566.75 407.75,-562.79 407.75,-558.83 407.75,-558.83 407.75,-550.92 407.75,-550.92 407.75,-546.96 411.71,-543 415.67,-543 415.67,-543 803.58,-543 803.58,-543 807.54,-543 811.5,-546.96 811.5,-550.92 811.5,-550.92 811.5,-558.83 811.5,-558.83 811.5,-562.79 807.54,-566.75 803.58,-566.75"/>
<text xml:space="preserve" text-anchor="middle" x="609.62" y="-549.45" font-family="Arial" font-size="14.00" fill="#c6c5fe">app/components/sidebar/components/SideBarTopButtonsList.tsx</text>
</g>
<!-- app/components/sidebar/SideBar.tsx&#45;&gt;app/components/sidebar/components/SideBarTopButtonsList.tsx -->
<g id="edge28" class="edge">
<title>app/components/sidebar/SideBar.tsx&#45;&gt;app/components/sidebar/components/SideBarTopButtonsList.tsx</title>
<path fill="none" stroke="#757575" d="M281.98,-465.25C312.27,-478.5 362.71,-499.45 407.75,-512.88 445.35,-524.08 487.76,-533.42 523.9,-540.42"/>
<polygon fill="#757575" stroke="#757575" points="522.93,-543.8 533.41,-542.23 524.24,-536.92 522.93,-543.8"/>
</g>
<!-- app/components/sidebar/components/SideButtonList.tsx -->
<g id="node28" class="node">
<title>app/components/sidebar/components/SideButtonList.tsx</title>
<path fill="none" stroke="#c6c5fe" d="M778.83,-343.75C778.83,-343.75 440.42,-343.75 440.42,-343.75 436.46,-343.75 432.5,-339.79 432.5,-335.83 432.5,-335.83 432.5,-327.92 432.5,-327.92 432.5,-323.96 436.46,-320 440.42,-320 440.42,-320 778.83,-320 778.83,-320 782.79,-320 786.75,-323.96 786.75,-327.92 786.75,-327.92 786.75,-335.83 786.75,-335.83 786.75,-339.79 782.79,-343.75 778.83,-343.75"/>
<text xml:space="preserve" text-anchor="middle" x="609.62" y="-326.45" font-family="Arial" font-size="14.00" fill="#c6c5fe">app/components/sidebar/components/SideButtonList.tsx</text>
</g>
<!-- app/components/sidebar/SideBar.tsx&#45;&gt;app/components/sidebar/components/SideButtonList.tsx -->
<g id="edge29" class="edge">
<title>app/components/sidebar/SideBar.tsx&#45;&gt;app/components/sidebar/components/SideButtonList.tsx</title>
<path fill="none" stroke="#757575" d="M268.06,-440.73C293.4,-418.85 350.57,-373.18 407.75,-352.88 413.78,-350.73 419.98,-348.79 426.28,-347.03"/>
<polygon fill="#757575" stroke="#757575" points="426.72,-350.53 435.51,-344.61 424.95,-343.76 426.72,-350.53"/>
</g>
<!-- app/components/sidebar/components/CalendarEntry.tsx -->
<g id="node29" class="node">
<title>app/components/sidebar/components/CalendarEntry.tsx</title>
<path fill="none" stroke="#c6c5fe" d="M1203.96,-919.75C1203.96,-919.75 867.04,-919.75 867.04,-919.75 863.08,-919.75 859.12,-915.79 859.12,-911.83 859.12,-911.83 859.12,-903.92 859.12,-903.92 859.12,-899.96 863.08,-896 867.04,-896 867.04,-896 1203.96,-896 1203.96,-896 1207.92,-896 1211.88,-899.96 1211.88,-903.92 1211.88,-903.92 1211.88,-911.83 1211.88,-911.83 1211.88,-915.79 1207.92,-919.75 1203.96,-919.75"/>
<text xml:space="preserve" text-anchor="middle" x="1035.5" y="-902.45" font-family="Arial" font-size="14.00" fill="#c6c5fe">app/components/sidebar/components/CalendarEntry.tsx</text>
</g>
<!-- app/components/sidebar/components/Calendar.tsx&#45;&gt;app/components/sidebar/components/CalendarEntry.tsx -->
<g id="edge31" class="edge">
<title>app/components/sidebar/components/Calendar.tsx&#45;&gt;app/components/sidebar/components/CalendarEntry.tsx</title>
<path fill="none" stroke="#757575" d="M770.57,-907.88C795.7,-907.88 821.88,-907.88 847.55,-907.88"/>
<polygon fill="#757575" stroke="#757575" points="847.4,-911.38 857.4,-907.88 847.4,-904.38 847.4,-911.38"/>
</g>
<!-- app/components/sidebar/hooks/useGithubActivity.ts -->
<g id="node30" class="node">
<title>app/components/sidebar/hooks/useGithubActivity.ts</title>
<path fill="none" stroke="#c6c5fe" d="M1990.08,-921.75C1990.08,-921.75 1679.42,-921.75 1679.42,-921.75 1675.46,-921.75 1671.5,-917.79 1671.5,-913.83 1671.5,-913.83 1671.5,-905.92 1671.5,-905.92 1671.5,-901.96 1675.46,-898 1679.42,-898 1679.42,-898 1990.08,-898 1990.08,-898 1994.04,-898 1998,-901.96 1998,-905.92 1998,-905.92 1998,-913.83 1998,-913.83 1998,-917.79 1994.04,-921.75 1990.08,-921.75"/>
<text xml:space="preserve" text-anchor="middle" x="1834.75" y="-904.45" font-family="Arial" font-size="14.00" fill="#c6c5fe">app/components/sidebar/hooks/useGithubActivity.ts</text>
</g>
<!-- app/components/sidebar/components/Calendar.tsx&#45;&gt;app/components/sidebar/hooks/useGithubActivity.ts -->
<g id="edge32" class="edge">
<title>app/components/sidebar/components/Calendar.tsx&#45;&gt;app/components/sidebar/hooks/useGithubActivity.ts</title>
<path fill="none" stroke="#757575" d="M726.75,-920.23C765.15,-923.77 808.11,-927.13 847.5,-928.88 1197.39,-944.35 1285.55,-936.89 1635.5,-922.88 1643.5,-922.55 1651.67,-922.19 1659.93,-921.78"/>
<polygon fill="#757575" stroke="#757575" points="1659.91,-925.29 1669.72,-921.28 1659.55,-918.29 1659.91,-925.29"/>
</g>
<!-- app/components/sidebar/components/SideBarTopButton.tsx -->
<g id="node32" class="node">
<title>app/components/sidebar/components/SideBarTopButton.tsx</title>
<path fill="none" stroke="#cfffac" d="M1215.58,-587.75C1215.58,-587.75 855.42,-587.75 855.42,-587.75 851.46,-587.75 847.5,-583.79 847.5,-579.83 847.5,-579.83 847.5,-571.92 847.5,-571.92 847.5,-567.96 851.46,-564 855.42,-564 855.42,-564 1215.58,-564 1215.58,-564 1219.54,-564 1223.5,-567.96 1223.5,-571.92 1223.5,-571.92 1223.5,-579.83 1223.5,-579.83 1223.5,-583.79 1219.54,-587.75 1215.58,-587.75"/>
<text xml:space="preserve" text-anchor="middle" x="1035.5" y="-570.45" font-family="Arial" font-size="14.00" fill="#cfffac">app/components/sidebar/components/SideBarTopButton.tsx</text>
</g>
<!-- app/components/sidebar/components/SideBarTopButtonsList.tsx&#45;&gt;app/components/sidebar/components/SideBarTopButton.tsx -->
<g id="edge36" class="edge">
<title>app/components/sidebar/components/SideBarTopButtonsList.tsx&#45;&gt;app/components/sidebar/components/SideBarTopButton.tsx</title>
<path fill="none" stroke="#757575" d="M811.7,-564.84C819.77,-565.24 827.85,-565.64 835.91,-566.04"/>
<polygon fill="#757575" stroke="#757575" points="835.61,-569.53 845.77,-566.52 835.96,-562.53 835.61,-569.53"/>
</g>
<!-- app/components/sidebar/components/SideButtonList.tsx&#45;&gt;app/hooks/useTabNavigation.ts -->
<g id="edge38" class="edge">
<title>app/components/sidebar/components/SideButtonList.tsx&#45;&gt;app/hooks/useTabNavigation.ts</title>
<path fill="none" stroke="#757575" d="M737.71,-319.51C762.22,-316.87 787.68,-313.94 811.5,-310.88 1009.4,-285.43 1240.84,-248.17 1362.28,-228.04"/>
<polygon fill="#757575" stroke="#757575" points="1362.54,-231.55 1371.83,-226.46 1361.39,-224.64 1362.54,-231.55"/>
</g>
<!-- app/components/sidebar/components/SideButtonList.tsx&#45;&gt;app/components/HoverButton.tsx -->
<g id="edge37" class="edge">
<title>app/components/sidebar/components/SideButtonList.tsx&#45;&gt;app/components/HoverButton.tsx</title>
<path fill="none" stroke="#757575" d="M748.54,-344.24C802.46,-349.07 863.69,-354.56 915.63,-359.22"/>
<polygon fill="#757575" stroke="#757575" points="915.12,-362.69 925.39,-360.09 915.74,-355.71 915.12,-362.69"/>
</g>
<!-- app/components/sidebar/components/CalendarEntry.tsx&#45;&gt;app/components/sidebar/hooks/useGithubActivity.ts -->
<g id="edge34" class="edge">
<title>app/components/sidebar/components/CalendarEntry.tsx&#45;&gt;app/components/sidebar/hooks/useGithubActivity.ts</title>
<path fill="none" stroke="#757575" d="M1211.95,-908.32C1345.04,-908.65 1527.09,-909.11 1659.81,-909.44"/>
<polygon fill="#757575" stroke="#757575" points="1659.76,-912.94 1669.77,-909.46 1659.78,-905.94 1659.76,-912.94"/>
</g>
<!-- app/components/sidebar/components/GitHubActivityDay.tsx -->
<g id="node31" class="node">
<title>app/components/sidebar/components/GitHubActivityDay.tsx</title>
<path fill="none" stroke="#c6c5fe" d="M1627.58,-881.75C1627.58,-881.75 1267.42,-881.75 1267.42,-881.75 1263.46,-881.75 1259.5,-877.79 1259.5,-873.83 1259.5,-873.83 1259.5,-865.92 1259.5,-865.92 1259.5,-861.96 1263.46,-858 1267.42,-858 1267.42,-858 1627.58,-858 1627.58,-858 1631.54,-858 1635.5,-861.96 1635.5,-865.92 1635.5,-865.92 1635.5,-873.83 1635.5,-873.83 1635.5,-877.79 1631.54,-881.75 1627.58,-881.75"/>
<text xml:space="preserve" text-anchor="middle" x="1447.5" y="-864.45" font-family="Arial" font-size="14.00" fill="#c6c5fe">app/components/sidebar/components/GitHubActivityDay.tsx</text>
</g>
<!-- app/components/sidebar/components/CalendarEntry.tsx&#45;&gt;app/components/sidebar/components/GitHubActivityDay.tsx -->
<g id="edge33" class="edge">
<title>app/components/sidebar/components/CalendarEntry.tsx&#45;&gt;app/components/sidebar/components/GitHubActivityDay.tsx</title>
<path fill="none" stroke="#757575" d="M1169.9,-895.51C1212.06,-891.6 1258.85,-887.27 1301.77,-883.29"/>
<polygon fill="#757575" stroke="#757575" points="1302.03,-886.78 1311.67,-882.37 1301.39,-879.81 1302.03,-886.78"/>
</g>
<!-- app/components/sidebar/hooks/useCalendar.ts -->
<g id="node33" class="node">
<title>app/components/sidebar/hooks/useCalendar.ts</title>
<path fill="none" stroke="#cfffac" d="M2324.08,-942.75C2324.08,-942.75 2041.92,-942.75 2041.92,-942.75 2037.96,-942.75 2034,-938.79 2034,-934.83 2034,-934.83 2034,-926.92 2034,-926.92 2034,-922.96 2037.96,-919 2041.92,-919 2041.92,-919 2324.08,-919 2324.08,-919 2328.04,-919 2332,-922.96 2332,-926.92 2332,-926.92 2332,-934.83 2332,-934.83 2332,-938.79 2328.04,-942.75 2324.08,-942.75"/>
<text xml:space="preserve" text-anchor="middle" x="2183" y="-925.45" font-family="Arial" font-size="14.00" fill="#cfffac">app/components/sidebar/hooks/useCalendar.ts</text>
</g>
<!-- app/components/sidebar/hooks/useGithubActivity.ts&#45;&gt;app/components/sidebar/hooks/useCalendar.ts -->
<g id="edge39" class="edge">
<title>app/components/sidebar/hooks/useGithubActivity.ts&#45;&gt;app/components/sidebar/hooks/useCalendar.ts</title>
<path fill="none" stroke="#757575" d="M1998.48,-919.74C2006.48,-920.23 2014.5,-920.72 2022.49,-921.2"/>
<polygon fill="#757575" stroke="#757575" points="2022.04,-924.68 2032.23,-921.79 2022.46,-917.69 2022.04,-924.68"/>
</g>
<!-- app/hooks/useCache.ts -->
<g id="node34" class="node">
<title>app/hooks/useCache.ts</title>
<path fill="none" stroke="#cfffac" d="M2253.58,-900.75C2253.58,-900.75 2112.42,-900.75 2112.42,-900.75 2108.46,-900.75 2104.5,-896.79 2104.5,-892.83 2104.5,-892.83 2104.5,-884.92 2104.5,-884.92 2104.5,-880.96 2108.46,-877 2112.42,-877 2112.42,-877 2253.58,-877 2253.58,-877 2257.54,-877 2261.5,-880.96 2261.5,-884.92 2261.5,-884.92 2261.5,-892.83 2261.5,-892.83 2261.5,-896.79 2257.54,-900.75 2253.58,-900.75"/>
<text xml:space="preserve" text-anchor="middle" x="2183" y="-883.45" font-family="Arial" font-size="14.00" fill="#cfffac">app/hooks/useCache.ts</text>
</g>
<!-- app/components/sidebar/hooks/useGithubActivity.ts&#45;&gt;app/hooks/useCache.ts -->
<g id="edge40" class="edge">
<title>app/components/sidebar/hooks/useGithubActivity.ts&#45;&gt;app/hooks/useCache.ts</title>
<path fill="none" stroke="#757575" d="M1998.48,-900.01C2031.03,-898.03 2064.07,-896.03 2092.97,-894.27"/>
<polygon fill="#757575" stroke="#757575" points="2092.97,-897.78 2102.74,-893.68 2092.55,-890.79 2092.97,-897.78"/>
</g>
<!-- app/components/sidebar/components/GitHubActivityDay.tsx&#45;&gt;app/components/sidebar/hooks/useGithubActivity.ts -->
<g id="edge35" class="edge">
<title>app/components/sidebar/components/GitHubActivityDay.tsx&#45;&gt;app/components/sidebar/hooks/useGithubActivity.ts</title>
<path fill="none" stroke="#757575" d="M1567.49,-882.23C1610.5,-886.7 1659.27,-891.76 1703.21,-896.32"/>
<polygon fill="#757575" stroke="#757575" points="1702.76,-899.79 1713.06,-897.34 1703.48,-892.83 1702.76,-899.79"/>
</g>
<!-- app/components/topbar/TopBar.tsx -->
<g id="node35" class="node">
<title>app/components/topbar/TopBar.tsx</title>
<path fill="none" stroke="#c6c5fe" d="M714.33,-99.75C714.33,-99.75 504.92,-99.75 504.92,-99.75 500.96,-99.75 497,-95.79 497,-91.83 497,-91.83 497,-83.92 497,-83.92 497,-79.96 500.96,-76 504.92,-76 504.92,-76 714.33,-76 714.33,-76 718.29,-76 722.25,-79.96 722.25,-83.92 722.25,-83.92 722.25,-91.83 722.25,-91.83 722.25,-95.79 718.29,-99.75 714.33,-99.75"/>
<text xml:space="preserve" text-anchor="middle" x="609.62" y="-82.45" font-family="Arial" font-size="14.00" fill="#c6c5fe">app/components/topbar/TopBar.tsx</text>
</g>
<!-- app/components/topbar/TopBar.tsx&#45;&gt;app/hooks/useTabNavigation.ts -->
<g id="edge44" class="edge">
<title>app/components/topbar/TopBar.tsx&#45;&gt;app/hooks/useTabNavigation.ts</title>
<path fill="none" stroke="#757575" d="M692.68,-100.24C849.09,-123.82 1188.98,-175.06 1353.53,-199.86"/>
<polygon fill="#757575" stroke="#757575" points="1352.68,-203.27 1363.09,-201.3 1353.73,-196.35 1352.68,-203.27"/>
</g>
<!-- app/components/topbar/components/TopBarButton.tsx -->
<g id="node36" class="node">
<title>app/components/topbar/components/TopBarButton.tsx</title>
<path fill="none" stroke="#c6c5fe" d="M1199.08,-23.75C1199.08,-23.75 871.92,-23.75 871.92,-23.75 867.96,-23.75 864,-19.79 864,-15.83 864,-15.83 864,-7.92 864,-7.92 864,-3.96 867.96,0 871.92,0 871.92,0 1199.08,0 1199.08,0 1203.04,0 1207,-3.96 1207,-7.92 1207,-7.92 1207,-15.83 1207,-15.83 1207,-19.79 1203.04,-23.75 1199.08,-23.75"/>
<text xml:space="preserve" text-anchor="middle" x="1035.5" y="-6.45" font-family="Arial" font-size="14.00" fill="#c6c5fe">app/components/topbar/components/TopBarButton.tsx</text>
</g>
<!-- app/components/topbar/TopBar.tsx&#45;&gt;app/components/topbar/components/TopBarButton.tsx -->
<g id="edge41" class="edge">
<title>app/components/topbar/TopBar.tsx&#45;&gt;app/components/topbar/components/TopBarButton.tsx</title>
<path fill="none" stroke="#757575" d="M656.6,-75.52C704.09,-63.16 780.51,-44.37 847.5,-32.88 862.94,-30.23 879.15,-27.83 895.3,-25.69"/>
<polygon fill="#757575" stroke="#757575" points="895.5,-29.2 904.97,-24.44 894.6,-22.25 895.5,-29.2"/>
</g>
<!-- app/components/topbar/hooks/useTabDragAndDrop.ts -->
<g id="node37" class="node">
<title>app/components/topbar/hooks/useTabDragAndDrop.ts</title>
<path fill="none" stroke="#cfffac" d="M1198.71,-65.75C1198.71,-65.75 872.29,-65.75 872.29,-65.75 868.33,-65.75 864.38,-61.79 864.38,-57.83 864.38,-57.83 864.38,-49.92 864.38,-49.92 864.38,-45.96 868.33,-42 872.29,-42 872.29,-42 1198.71,-42 1198.71,-42 1202.67,-42 1206.62,-45.96 1206.62,-49.92 1206.62,-49.92 1206.62,-57.83 1206.62,-57.83 1206.62,-61.79 1202.67,-65.75 1198.71,-65.75"/>
<text xml:space="preserve" text-anchor="middle" x="1035.5" y="-48.45" font-family="Arial" font-size="14.00" fill="#cfffac">app/components/topbar/hooks/useTabDragAndDrop.ts</text>
</g>
<!-- app/components/topbar/TopBar.tsx&#45;&gt;app/components/topbar/hooks/useTabDragAndDrop.ts -->
<g id="edge42" class="edge">
<title>app/components/topbar/TopBar.tsx&#45;&gt;app/components/topbar/hooks/useTabDragAndDrop.ts</title>
<path fill="none" stroke="#757575" d="M722.55,-78.9C767.38,-75.3 819.95,-71.08 869.03,-67.15"/>
<polygon fill="#757575" stroke="#757575" points="869.23,-70.64 878.92,-66.35 868.67,-63.67 869.23,-70.64"/>
</g>
<!-- app/components/topbar/hooks/useTabList.ts -->
<g id="node38" class="node">
<title>app/components/topbar/hooks/useTabList.ts</title>
<path fill="none" stroke="#c6c5fe" d="M1167.96,-107.75C1167.96,-107.75 903.04,-107.75 903.04,-107.75 899.08,-107.75 895.12,-103.79 895.12,-99.83 895.12,-99.83 895.12,-91.92 895.12,-91.92 895.12,-87.96 899.08,-84 903.04,-84 903.04,-84 1167.96,-84 1167.96,-84 1171.92,-84 1175.88,-87.96 1175.88,-91.92 1175.88,-91.92 1175.88,-99.83 1175.88,-99.83 1175.88,-103.79 1171.92,-107.75 1167.96,-107.75"/>
<text xml:space="preserve" text-anchor="middle" x="1035.5" y="-90.45" font-family="Arial" font-size="14.00" fill="#c6c5fe">app/components/topbar/hooks/useTabList.ts</text>
</g>
<!-- app/components/topbar/TopBar.tsx&#45;&gt;app/components/topbar/hooks/useTabList.ts -->
<g id="edge43" class="edge">
<title>app/components/topbar/TopBar.tsx&#45;&gt;app/components/topbar/hooks/useTabList.ts</title>
<path fill="none" stroke="#757575" d="M722.55,-89.99C771.89,-90.92 830.63,-92.03 883.75,-93.03"/>
<polygon fill="#757575" stroke="#757575" points="883.42,-96.52 893.48,-93.21 883.55,-89.53 883.42,-96.52"/>
</g>
<!-- app/components/topbar/components/TopBarButton.tsx&#45;&gt;app/hooks/useTabNavigation.ts -->
<g id="edge46" class="edge">
<title>app/components/topbar/components/TopBarButton.tsx&#45;&gt;app/hooks/useTabNavigation.ts</title>
<path fill="none" stroke="#757575" d="M1203.57,-24.2C1210.43,-26.71 1217.11,-29.59 1223.5,-32.88 1244.77,-43.81 1241.87,-56.71 1259.5,-72.88 1312.19,-121.18 1380.69,-169.63 1418.45,-195.25"/>
<polygon fill="#757575" stroke="#757575" points="1416.3,-198.02 1426.54,-200.71 1420.21,-192.22 1416.3,-198.02"/>
</g>
<!-- app/components/topbar/hooks/useCurrentPath.ts -->
<g id="node39" class="node">
<title>app/components/topbar/hooks/useCurrentPath.ts</title>
<path fill="none" stroke="#cfffac" d="M1594.96,-63.75C1594.96,-63.75 1300.04,-63.75 1300.04,-63.75 1296.08,-63.75 1292.12,-59.79 1292.12,-55.83 1292.12,-55.83 1292.12,-47.92 1292.12,-47.92 1292.12,-43.96 1296.08,-40 1300.04,-40 1300.04,-40 1594.96,-40 1594.96,-40 1598.92,-40 1602.88,-43.96 1602.88,-47.92 1602.88,-47.92 1602.88,-55.83 1602.88,-55.83 1602.88,-59.79 1598.92,-63.75 1594.96,-63.75"/>
<text xml:space="preserve" text-anchor="middle" x="1447.5" y="-46.45" font-family="Arial" font-size="14.00" fill="#cfffac">app/components/topbar/hooks/useCurrentPath.ts</text>
</g>
<!-- app/components/topbar/components/TopBarButton.tsx&#45;&gt;app/components/topbar/hooks/useCurrentPath.ts -->
<g id="edge45" class="edge">
<title>app/components/topbar/components/TopBarButton.tsx&#45;&gt;app/components/topbar/hooks/useCurrentPath.ts</title>
<path fill="none" stroke="#757575" d="M1163.14,-24.23C1209.2,-28.72 1261.47,-33.82 1308.47,-38.41"/>
<polygon fill="#757575" stroke="#757575" points="1307.86,-41.87 1318.16,-39.35 1308.54,-34.9 1307.86,-41.87"/>
</g>
<!-- app/components/topbar/components/TopBarButton.tsx&#45;&gt;store/slices/tabSlice.ts -->
<g id="edge47" class="edge">
<title>app/components/topbar/components/TopBarButton.tsx&#45;&gt;store/slices/tabSlice.ts</title>
<path fill="none" stroke="#757575" d="M1207.27,-11.58C1327.3,-12.76 1491.53,-17.19 1635.5,-30.88 1806.68,-47.15 2005.63,-83.19 2109.84,-103.41"/>
<polygon fill="#757575" stroke="#757575" points="2108.88,-106.79 2119.37,-105.26 2110.22,-99.92 2108.88,-106.79"/>
</g>
<!-- app/components/topbar/hooks/useTabList.ts&#45;&gt;app/hooks/useTabNavigation.ts -->
<g id="edge48" class="edge">
<title>app/components/topbar/hooks/useTabList.ts&#45;&gt;app/hooks/useTabNavigation.ts</title>
<path fill="none" stroke="#757575" d="M1176.05,-107.01C1192.4,-110.72 1208.55,-115.56 1223.5,-121.88 1242.17,-129.76 1241.67,-140.24 1259.5,-149.88 1299.34,-171.4 1347.8,-187.74 1385.41,-198.52"/>
<polygon fill="#757575" stroke="#757575" points="1384.18,-201.81 1394.75,-201.14 1386.07,-195.07 1384.18,-201.81"/>
</g>
<!-- app/components/topbar/hooks/useTabList.ts&#45;&gt;store/slices/tabSlice.ts -->
<g id="edge50" class="edge">
<title>app/components/topbar/hooks/useTabList.ts&#45;&gt;store/slices/tabSlice.ts</title>
<path fill="none" stroke="#757575" d="M1176.1,-98.56C1416.2,-103.17 1900.41,-112.47 2096.57,-116.23"/>
<polygon fill="#757575" stroke="#757575" points="2096.37,-119.73 2106.44,-116.42 2096.51,-112.73 2096.37,-119.73"/>
</g>
<!-- app/components/topbar/hooks/useTabList.ts&#45;&gt;store/index.ts -->
<g id="edge49" class="edge">
<title>app/components/topbar/hooks/useTabList.ts&#45;&gt;store/index.ts</title>
<path fill="none" stroke="#757575" d="M1176.28,-106.39C1353.19,-119.71 1649.92,-142.04 1775.16,-151.47"/>
<polygon fill="#757575" stroke="#757575" points="1774.63,-154.94 1784.87,-152.2 1775.16,-147.96 1774.63,-154.94"/>
</g>
<!-- store/index.ts&#45;&gt;store/slices/tabSlice.ts -->
<g id="edge67" class="edge">
<title>store/index.ts&#45;&gt;store/slices/tabSlice.ts</title>
<path fill="none" stroke="#757575" d="M1883.17,-150.67C1937.97,-144.66 2029.23,-134.64 2096.51,-127.26"/>
<polygon fill="#757575" stroke="#757575" points="2096.87,-130.74 2106.43,-126.17 2096.11,-123.78 2096.87,-130.74"/>
</g>
<!-- app/globals.css -->
<g id="node42" class="node">
<title>app/globals.css</title>
<path fill="none" stroke="#cfffac" d="M300.08,-181.75C300.08,-181.75 206.92,-181.75 206.92,-181.75 202.96,-181.75 199,-177.79 199,-173.83 199,-173.83 199,-165.92 199,-165.92 199,-161.96 202.96,-158 206.92,-158 206.92,-158 300.08,-158 300.08,-158 304.04,-158 308,-161.96 308,-165.92 308,-165.92 308,-173.83 308,-173.83 308,-177.79 304.04,-181.75 300.08,-181.75"/>
<text xml:space="preserve" text-anchor="middle" x="253.5" y="-164.45" font-family="Arial" font-size="14.00" fill="#cfffac">app/globals.css</text>
</g>
<!-- app/hooks/getNoteByHref.ts&#45;&gt;app/(Notes)/Graph/notes.ts -->
<g id="edge51" class="edge">
<title>app/hooks/getNoteByHref.ts&#45;&gt;app/(Notes)/Graph/notes.ts</title>
<path fill="none" stroke="#757575" d="M1927.18,-457.16C1974.67,-459.9 2032.8,-463.26 2081.55,-466.07"/>
<polygon fill="#757575" stroke="#757575" points="2081.06,-469.55 2091.25,-466.63 2081.47,-462.56 2081.06,-469.55"/>
</g>
<!-- app/index.md -->
<g id="node44" class="node">
<title>app/index.md</title>
<path fill="none" stroke="#cfffac" d="M1076.46,-629.75C1076.46,-629.75 994.54,-629.75 994.54,-629.75 990.58,-629.75 986.62,-625.79 986.62,-621.83 986.62,-621.83 986.62,-613.92 986.62,-613.92 986.62,-609.96 990.58,-606 994.54,-606 994.54,-606 1076.46,-606 1076.46,-606 1080.42,-606 1084.38,-609.96 1084.38,-613.92 1084.38,-613.92 1084.38,-621.83 1084.38,-621.83 1084.38,-625.79 1080.42,-629.75 1076.46,-629.75"/>
<text xml:space="preserve" text-anchor="middle" x="1035.5" y="-612.45" font-family="Arial" font-size="14.00" fill="#cfffac">app/index.md</text>
</g>
<!-- app/layout.tsx -->
<g id="node45" class="node">
<title>app/layout.tsx</title>
<path fill="none" stroke="#c6c5fe" d="M91.33,-160.75C91.33,-160.75 7.92,-160.75 7.92,-160.75 3.96,-160.75 0,-156.79 0,-152.83 0,-152.83 0,-144.92 0,-144.92 0,-140.96 3.96,-137 7.92,-137 7.92,-137 91.33,-137 91.33,-137 95.29,-137 99.25,-140.96 99.25,-144.92 99.25,-144.92 99.25,-152.83 99.25,-152.83 99.25,-156.79 95.29,-160.75 91.33,-160.75"/>
<text xml:space="preserve" text-anchor="middle" x="49.62" y="-143.45" font-family="Arial" font-size="14.00" fill="#c6c5fe">app/layout.tsx</text>
</g>
<!-- app/layout.tsx&#45;&gt;app/components/sidebar/SideBar.tsx -->
<g id="edge55" class="edge">
<title>app/layout.tsx&#45;&gt;app/components/sidebar/SideBar.tsx</title>
<path fill="none" stroke="#757575" d="M58.79,-161.17C89.55,-207.49 198.68,-371.83 238.13,-431.24"/>
<polygon fill="#757575" stroke="#757575" points="235.17,-433.11 243.62,-439.5 241,-429.23 235.17,-433.11"/>
</g>
<!-- app/layout.tsx&#45;&gt;app/components/topbar/TopBar.tsx -->
<g id="edge56" class="edge">
<title>app/layout.tsx&#45;&gt;app/components/topbar/TopBar.tsx</title>
<path fill="none" stroke="#757575" d="M69.55,-136.57C86.12,-126.52 111.26,-113.01 135.25,-106.88 251.37,-77.17 388.69,-75.13 485.44,-78.88"/>
<polygon fill="#757575" stroke="#757575" points="485.08,-82.37 495.22,-79.29 485.38,-75.38 485.08,-82.37"/>
</g>
<!-- app/layout.tsx&#45;&gt;app/globals.css -->
<g id="edge57" class="edge">
<title>app/layout.tsx&#45;&gt;app/globals.css</title>
<path fill="none" stroke="#757575" d="M99.49,-153.96C125.97,-156.71 159.02,-160.15 187.63,-163.13"/>
<polygon fill="#757575" stroke="#757575" points="186.95,-166.57 197.26,-164.13 187.67,-159.61 186.95,-166.57"/>
</g>
<!-- app/providers.tsx -->
<g id="node46" class="node">
<title>app/providers.tsx</title>
<path fill="none" stroke="#c6c5fe" d="M304.96,-139.75C304.96,-139.75 202.04,-139.75 202.04,-139.75 198.08,-139.75 194.12,-135.79 194.12,-131.83 194.12,-131.83 194.12,-123.92 194.12,-123.92 194.12,-119.96 198.08,-116 202.04,-116 202.04,-116 304.96,-116 304.96,-116 308.92,-116 312.88,-119.96 312.88,-123.92 312.88,-123.92 312.88,-131.83 312.88,-131.83 312.88,-135.79 308.92,-139.75 304.96,-139.75"/>
<text xml:space="preserve" text-anchor="middle" x="253.5" y="-122.45" font-family="Arial" font-size="14.00" fill="#c6c5fe">app/providers.tsx</text>
</g>
<!-- app/layout.tsx&#45;&gt;app/providers.tsx -->
<g id="edge58" class="edge">
<title>app/layout.tsx&#45;&gt;app/providers.tsx</title>
<path fill="none" stroke="#757575" d="M99.49,-143.79C124.42,-141.2 155.17,-138 182.55,-135.15"/>
<polygon fill="#757575" stroke="#757575" points="182.57,-138.67 192.15,-134.15 181.84,-131.71 182.57,-138.67"/>
</g>
<!-- app/providers.tsx&#45;&gt;store/index.ts -->
<g id="edge61" class="edge">
<title>app/providers.tsx&#45;&gt;store/index.ts</title>
<path fill="none" stroke="#757575" d="M313.05,-128.91C561.43,-133.32 1526.54,-150.43 1775.1,-154.84"/>
<polygon fill="#757575" stroke="#757575" points="1774.82,-158.33 1784.88,-155.01 1774.94,-151.33 1774.82,-158.33"/>
</g>
<!-- app/page.tsx -->
<g id="node47" class="node">
<title>app/page.tsx</title>
<path fill="none" stroke="#c6c5fe" d="M648.33,-639.75C648.33,-639.75 570.92,-639.75 570.92,-639.75 566.96,-639.75 563,-635.79 563,-631.83 563,-631.83 563,-623.92 563,-623.92 563,-619.96 566.96,-616 570.92,-616 570.92,-616 648.33,-616 648.33,-616 652.29,-616 656.25,-619.96 656.25,-623.92 656.25,-623.92 656.25,-631.83 656.25,-631.83 656.25,-635.79 652.29,-639.75 648.33,-639.75"/>
<text xml:space="preserve" text-anchor="middle" x="609.62" y="-622.45" font-family="Arial" font-size="14.00" fill="#c6c5fe">app/page.tsx</text>
</g>
<!-- app/page.tsx&#45;&gt;app/components/note/Note.tsx -->
<g id="edge59" class="edge">
<title>app/page.tsx&#45;&gt;app/components/note/Note.tsx</title>
<path fill="none" stroke="#757575" d="M656.5,-627.74C698.29,-629.07 761,-634.73 811.5,-654.88 829.83,-662.19 829.09,-673.76 847.5,-680.88 871.39,-690.1 898.19,-695.65 923.87,-698.9"/>
<polygon fill="#757575" stroke="#757575" points="923.35,-702.37 933.68,-700.03 924.14,-695.41 923.35,-702.37"/>
</g>
<!-- app/page.tsx&#45;&gt;app/index.md -->
<g id="edge60" class="edge">
<title>app/page.tsx&#45;&gt;app/index.md</title>
<path fill="none" stroke="#757575" d="M656.39,-626.8C733.55,-624.98 889.45,-621.3 975,-619.28"/>
<polygon fill="#757575" stroke="#757575" points="974.91,-622.78 984.82,-619.05 974.74,-615.78 974.91,-622.78"/>
</g>
<!-- mdx&#45;components.tsx -->
<g id="node48" class="node">
<title>mdx&#45;components.tsx</title>
<path fill="none" stroke="#c6c5fe" d="M316.58,-259.75C316.58,-259.75 190.42,-259.75 190.42,-259.75 186.46,-259.75 182.5,-255.79 182.5,-251.83 182.5,-251.83 182.5,-243.92 182.5,-243.92 182.5,-239.96 186.46,-236 190.42,-236 190.42,-236 316.58,-236 316.58,-236 320.54,-236 324.5,-239.96 324.5,-243.92 324.5,-243.92 324.5,-251.83 324.5,-251.83 324.5,-255.79 320.54,-259.75 316.58,-259.75"/>
<text xml:space="preserve" text-anchor="middle" x="253.5" y="-242.45" font-family="Arial" font-size="14.00" fill="#c6c5fe">mdx&#45;components.tsx</text>
</g>
<!-- mdx&#45;components.tsx&#45;&gt;app/components/ExternalLink.tsx -->
<g id="edge62" class="edge">
<title>mdx&#45;components.tsx&#45;&gt;app/components/ExternalLink.tsx</title>
<path fill="none" stroke="#757575" d="M283.61,-235.55C314.04,-223.16 363.43,-204.43 407.75,-193.88 434.21,-187.58 463.01,-182.71 490.34,-178.98"/>
<polygon fill="#757575" stroke="#757575" points="490.58,-182.48 500.03,-177.71 489.66,-175.54 490.58,-182.48"/>
</g>
<!-- mdx&#45;components.tsx&#45;&gt;app/components/LineNumbers.tsx -->
<g id="edge63" class="edge">
<title>mdx&#45;components.tsx&#45;&gt;app/components/LineNumbers.tsx</title>
<path fill="none" stroke="#757575" d="M324.89,-247.88C371.12,-247.88 432.82,-247.88 486.87,-247.88"/>
<polygon fill="#757575" stroke="#757575" points="486.77,-251.38 496.77,-247.88 486.77,-244.38 486.77,-251.38"/>
</g>
<!-- mdx&#45;components.tsx&#45;&gt;app/components/LocalLink.tsx -->
<g id="edge64" class="edge">
<title>mdx&#45;components.tsx&#45;&gt;app/components/LocalLink.tsx</title>
<path fill="none" stroke="#757575" d="M324.89,-236.5C350.86,-232.75 380.58,-229.01 407.75,-226.88 588.46,-212.67 799.31,-211.44 924.6,-212.32"/>
<polygon fill="#757575" stroke="#757575" points="924.54,-215.82 934.57,-212.4 924.6,-208.82 924.54,-215.82"/>
</g>
<!-- mdx&#45;components.tsx&#45;&gt;app/components/parseDoubleBrackets.tsx -->
<g id="edge65" class="edge">
<title>mdx&#45;components.tsx&#45;&gt;app/components/parseDoubleBrackets.tsx</title>
<path fill="none" stroke="#757575" d="M324.63,-257.97C350.7,-261.59 380.56,-265.59 407.75,-268.88 428.8,-271.42 451.11,-273.93 472.91,-276.28"/>
<polygon fill="#757575" stroke="#757575" points="472.43,-279.75 482.75,-277.34 473.18,-272.79 472.43,-279.75"/>
</g>
<!-- mdx&#45;components.tsx&#45;&gt;app/hooks/getNoteByHref.ts -->
<g id="edge66" class="edge">
<title>mdx&#45;components.tsx&#45;&gt;app/hooks/getNoteByHref.ts</title>
<path fill="none" stroke="#757575" d="M262.72,-260.2C283.16,-289.65 339.58,-363.99 407.75,-394.88 527.16,-448.97 1423.71,-452.58 1730.87,-452.21"/>
<polygon fill="#757575" stroke="#757575" points="1730.48,-455.71 1740.47,-452.19 1730.47,-448.71 1730.48,-455.71"/>
</g>
</g>
</svg>
